<svg width="355.968262" height="35.085938" viewBox="0 0 355.968 35.0859" fill="none" xmlns="http://www.w3.org/2000/svg" xmlns:xlink="http://www.w3.org/1999/xlink">
	<desc>
			Created with Pixso.
	</desc>
	<defs/>
	<path id="Marcelo Ferreira" d="M305.34 5.49Q306.28 6.32 307.96 6.32Q309.69 6.32 310.59 5.49Q310.81 5.29 310.97 5.06Q311.51 4.3 311.51 3.16Q311.51 1.9 310.9 1.13Q310.76 0.96 310.59 0.82Q309.69 0 307.96 0Q306.28 0 305.34 0.82Q305.15 0.98 304.99 1.18Q304.41 1.94 304.41 3.16Q304.41 4.26 304.92 5.01Q305.1 5.27 305.34 5.49ZM0.91 34.41Q1.6 34.99 2.77 34.99Q4.04 34.99 4.73 34.35Q4.8 34.29 4.86 34.23Q4.9 34.18 4.94 34.13Q5.56 33.37 5.56 32.1L5.56 11.93L14.58 28.26Q15.02 29.03 15.59 29.44Q16.17 29.84 17.08 29.84Q18 29.84 18.52 29.47Q19.05 29.08 19.53 28.26L28.55 11.81L28.55 32.1Q28.55 33.34 29.16 34.1Q29.21 34.16 29.27 34.23Q29.37 34.34 29.49 34.43Q30.19 34.99 31.33 34.99Q32.6 34.99 33.29 34.35Q33.36 34.29 33.42 34.23Q33.46 34.18 33.5 34.13Q34.12 33.37 34.12 32.1L34.12 3.25Q34.12 1.95 33.47 1.22Q33.43 1.17 33.39 1.13Q33.31 1.05 33.22 0.97Q32.52 0.38 31.33 0.38Q30.14 0.38 29.46 0.84Q28.79 1.28 28.21 2.4L17.12 22.9L6.04 2.4Q5.47 1.28 4.76 0.84Q4.07 0.38 2.87 0.38Q1.72 0.38 0.99 0.93Q0.87 1.02 0.76 1.13Q0.68 1.21 0.61 1.29Q0 2.01 0 3.25L0 32.1Q0 33.34 0.6 34.1Q0.65 34.16 0.71 34.23Q0.8 34.32 0.91 34.41ZM136.45 33.37Q138.42 35.08 141.88 35.08Q142.4 35.08 142.93 35.03Q143.46 34.99 143.94 34.94Q144.98 34.8 145.47 34.2Q145.5 34.16 145.53 34.12Q146.01 33.45 146.01 32.25Q146.01 30.86 145.77 30.41Q145.7 30.27 145.59 30.18Q145.33 29.98 144.85 30.04Q144.52 30.09 144.18 30.11Q143.84 30.14 143.46 30.14Q142.11 30.14 141.24 29.49Q141 29.31 140.8 29.08Q139.86 28.03 139.86 25.81L139.86 3.41Q139.86 2.02 139.17 1.27Q139.12 1.21 139.06 1.16Q139 1.09 138.93 1.04Q138.16 0.38 136.84 0.38Q135.51 0.38 134.75 1.04Q134.68 1.09 134.62 1.16Q134.6 1.17 134.59 1.19Q133.86 1.95 133.86 3.41L133.86 26.1Q133.86 30.52 135.88 32.81Q136.14 33.11 136.45 33.37ZM191.27 34.38Q192.07 34.99 193.34 34.99Q194.69 34.99 195.42 34.32Q196.31 33.51 196.31 31.72L196.31 20.1L209.17 20.1Q210.29 20.1 210.93 19.55Q210.97 19.51 211.02 19.46Q211.08 19.4 211.13 19.34Q211.67 18.7 211.67 17.61Q211.67 16.61 211.17 16Q211.1 15.92 211.02 15.84Q210.99 15.81 210.95 15.77Q210.31 15.21 209.17 15.21L196.31 15.21L196.31 5.66L210.18 5.66Q211.4 5.66 212.02 5.05Q212.04 5.03 212.05 5.01Q212.07 4.99 212.09 4.97Q212.67 4.33 212.67 3.16Q212.67 2.11 212.16 1.5Q212.11 1.44 212.05 1.39Q212.05 1.38 212.04 1.38Q211.42 0.76 210.18 0.76L193.43 0.76Q191.96 0.76 191.13 1.49Q191.07 1.54 191.01 1.6Q190.95 1.66 190.89 1.72Q190.16 2.56 190.16 4.03L190.16 31.72Q190.16 33.19 190.89 34.02Q190.95 34.08 191.01 34.14Q191.13 34.27 191.27 34.38ZM68.12 34.29Q68.91 34.99 70.31 34.99Q71.71 34.99 72.47 34.29Q72.51 34.25 72.56 34.2Q72.59 34.17 72.62 34.13Q73.33 33.34 73.33 31.92L73.33 21.98Q73.33 19.5 74.55 18.02Q74.68 17.87 74.82 17.73Q76.31 16.21 79.24 15.93L80.29 15.83Q81.56 15.69 82.21 14.98Q82.22 14.97 82.24 14.95Q82.38 14.79 82.48 14.61Q82.87 13.94 82.79 13Q82.69 11.75 82.09 11.15Q81.94 11 81.76 10.89Q81.23 10.58 80.49 10.65Q77.22 10.94 75.25 12.43Q74.98 12.64 74.73 12.87Q73.69 13.84 73.09 15.28L73.09 13.76Q73.09 12.34 72.38 11.58Q72.35 11.54 72.32 11.51Q72.23 11.42 72.14 11.35Q71.4 10.74 70.17 10.74Q68.94 10.74 68.19 11.34Q68.09 11.42 68 11.51Q67.98 11.53 67.96 11.55Q67.24 12.31 67.24 13.76L67.24 31.92Q67.24 33.32 67.93 34.1Q67.97 34.15 68.02 34.2Q68.07 34.25 68.12 34.29ZM242.6 34.29Q243.39 34.99 244.79 34.99Q246.19 34.99 246.95 34.29Q246.99 34.25 247.04 34.2Q247.07 34.17 247.1 34.13Q247.81 33.34 247.81 31.92L247.81 21.98Q247.81 19.5 249.03 18.02Q249.16 17.87 249.3 17.73Q250.79 16.21 253.72 15.93L254.77 15.83Q256.04 15.69 256.69 14.98Q256.7 14.97 256.72 14.95Q256.85 14.79 256.96 14.61Q257.35 13.94 257.27 13Q257.17 11.75 256.57 11.15Q256.42 11 256.24 10.89Q255.72 10.58 254.97 10.65Q251.7 10.94 249.73 12.43Q249.46 12.64 249.21 12.87Q248.17 13.84 247.58 15.28L247.58 13.76Q247.58 12.34 246.86 11.58Q246.83 11.54 246.8 11.51Q246.71 11.42 246.62 11.35Q245.88 10.74 244.65 10.74Q243.42 10.74 242.67 11.34Q242.57 11.42 242.48 11.51Q242.46 11.53 242.44 11.55Q241.72 12.31 241.72 13.76L241.72 31.92Q241.72 33.32 242.41 34.1Q242.45 34.15 242.5 34.2Q242.55 34.25 242.6 34.29ZM261.41 34.29Q262.2 34.99 263.6 34.99Q265.01 34.99 265.77 34.29Q265.81 34.25 265.85 34.2Q265.89 34.17 265.92 34.13Q266.63 33.34 266.63 31.92L266.63 21.98Q266.63 19.5 267.84 18.02Q267.97 17.87 268.11 17.73Q269.6 16.21 272.53 15.93L273.59 15.83Q274.86 15.69 275.5 14.98Q275.52 14.97 275.53 14.95Q275.67 14.79 275.78 14.61Q276.17 13.94 276.08 13Q275.99 11.75 275.39 11.15Q275.24 11 275.05 10.89Q274.53 10.58 273.79 10.65Q270.52 10.94 268.55 12.43Q268.27 12.64 268.02 12.87Q266.99 13.84 266.39 15.28L266.39 13.76Q266.39 12.34 265.68 11.58Q265.65 11.54 265.62 11.51Q265.53 11.42 265.43 11.35Q264.69 10.74 263.46 10.74Q262.23 10.74 261.49 11.34Q261.39 11.42 261.29 11.51Q261.28 11.53 261.26 11.55Q260.53 12.31 260.53 13.76L260.53 31.92Q260.53 33.32 261.23 34.1Q261.27 34.15 261.32 34.2Q261.36 34.25 261.41 34.29ZM318.1 34.29Q318.89 34.99 320.29 34.99Q321.7 34.99 322.45 34.29Q322.5 34.25 322.54 34.2Q322.57 34.17 322.61 34.13Q323.31 33.34 323.31 31.92L323.31 21.98Q323.31 19.5 324.53 18.02Q324.66 17.87 324.8 17.73Q326.29 16.21 329.22 15.93L330.27 15.83Q331.55 15.69 332.19 14.98Q332.2 14.97 332.22 14.95Q332.36 14.79 332.46 14.61Q332.85 13.94 332.77 13Q332.68 11.75 332.08 11.15Q331.92 11 331.74 10.89Q331.22 10.58 330.47 10.65Q327.2 10.94 325.24 12.43Q324.96 12.64 324.71 12.87Q323.68 13.84 323.08 15.28L323.08 13.76Q323.08 12.34 322.37 11.58Q322.34 11.54 322.31 11.51Q322.22 11.42 322.12 11.35Q321.38 10.74 320.15 10.74Q318.92 10.74 318.18 11.34Q318.07 11.42 317.98 11.51Q317.96 11.53 317.95 11.55Q317.22 12.31 317.22 13.76L317.22 31.92Q317.22 33.32 317.91 34.1Q317.96 34.15 318 34.2Q318.05 34.25 318.1 34.29ZM44.18 34.1Q46.17 35.08 48.71 35.08Q50.64 35.08 52.11 34.41Q53.16 33.93 53.96 33.19Q54.29 32.87 54.58 32.51Q54.72 32.34 54.85 32.16Q55.25 31.58 55.52 30.91L55.52 31.92Q55.52 33.41 56.26 34.2Q56.39 34.34 56.54 34.45Q57.24 34.99 58.36 34.99Q59.49 34.99 60.17 34.43Q60.31 34.33 60.42 34.2Q61.15 33.41 61.15 31.92L61.15 20.4Q61.15 17.03 60.03 14.9Q59.55 13.96 58.85 13.23Q57.95 12.3 56.69 11.7Q54.47 10.65 51.01 10.65Q49.33 10.65 47.3 11.03Q45.26 11.42 43.04 12.32Q42.27 12.62 41.87 13.18Q41.81 13.27 41.75 13.37Q41.43 13.94 41.38 14.54Q41.37 14.66 41.37 14.78Q41.37 15.15 41.47 15.49Q41.56 15.81 41.75 16.1Q41.94 16.38 42.19 16.58Q42.47 16.79 42.83 16.89Q43.52 17.08 44.44 16.65Q46.22 15.83 47.82 15.5Q49.43 15.16 50.82 15.16Q53.32 15.16 54.37 16.21Q55.43 17.27 55.43 19.67L55.43 20.68L53.75 20.68Q48.67 20.68 45.64 21.36Q42.62 22.03 41.27 23.54Q41.19 23.63 41.11 23.73Q39.92 25.21 39.92 27.64Q39.92 28.94 40.35 30.08Q40.62 30.79 41.05 31.44Q41.22 31.69 41.42 31.94Q42.49 33.26 44.18 34.1ZM55.43 24.14L55.43 25.19Q55.43 26.82 54.75 28.08Q54.73 28.13 54.7 28.18Q54.28 28.93 53.69 29.51Q53.27 29.91 52.76 30.22Q52.57 30.33 52.38 30.42Q51.3 30.96 49.96 30.96Q48.05 30.96 46.96 30.02Q46.92 29.98 46.89 29.95Q46.43 29.53 46.17 29.02Q45.78 28.29 45.78 27.36Q45.78 26.33 46.28 25.68Q46.39 25.54 46.52 25.41Q47.27 24.71 49.04 24.43Q50.82 24.14 53.8 24.14L55.43 24.14ZM90.09 33.57Q92.83 35.08 96.52 35.08Q98.1 35.08 99.87 34.65Q100.58 34.48 101.25 34.22Q102.28 33.83 103.23 33.25Q103.87 32.88 104.14 32.32Q104.19 32.24 104.22 32.15Q104.38 31.75 104.41 31.33Q104.42 31.06 104.38 30.79Q104.32 30.3 104.09 29.91Q103.99 29.74 103.86 29.58Q103.67 29.36 103.43 29.2Q103.14 29.02 102.78 28.94Q102.13 28.79 101.32 29.22Q100.21 29.84 99.13 30.14Q98.05 30.43 97.05 30.43Q94.82 30.43 93.31 29.39Q92.71 28.97 92.22 28.39Q90.52 26.34 90.52 22.79Q90.52 20.97 90.95 19.58Q91.39 18.18 92.22 17.25Q92.52 16.91 92.86 16.64Q93.48 16.13 94.26 15.8Q95.46 15.3 97.05 15.3Q98.05 15.3 99.16 15.62Q100.26 15.93 101.32 16.55Q102.13 16.99 102.8 16.87Q103.17 16.8 103.47 16.62Q103.73 16.47 103.94 16.24Q104.11 16.05 104.23 15.84Q104.45 15.48 104.53 15.04Q104.61 14.67 104.58 14.31Q104.55 13.99 104.43 13.67L104.43 13.66Q104.19 13 103.43 12.52Q102.41 11.9 101.31 11.49Q100.64 11.25 99.94 11.08Q98.1 10.65 96.52 10.65Q93.73 10.65 91.47 11.49Q89.45 12.24 87.97 13.58Q87.8 13.73 87.64 13.89Q87.47 14.06 87.3 14.24Q85.96 15.69 85.21 17.69Q84.38 19.92 84.38 22.74Q84.38 26.49 85.87 29.28Q86.66 30.75 87.79 31.87Q88.8 32.86 90.09 33.57ZM112.54 33.59Q115.43 35.08 119.41 35.08Q121.29 35.08 123.46 34.58Q125.66 34.07 127.33 33.02Q128.2 32.49 128.55 31.78Q128.88 31.11 128.83 30.48Q128.83 30.42 128.82 30.36Q128.76 29.88 128.53 29.51Q128.42 29.33 128.27 29.17Q128.18 29.08 128.08 29Q127.66 28.68 127.04 28.62Q126.28 28.55 125.27 29.13Q124.53 29.54 123.75 29.82Q123.05 30.07 122.32 30.22Q120.76 30.52 119.52 30.52Q116.18 30.52 114.35 28.87Q114.2 28.73 114.05 28.58Q112.59 27.03 112.29 24.23L126.8 24.23Q127.91 24.23 128.5 23.77Q128.72 23.61 128.86 23.4Q129.11 23.01 129.11 22.46Q129.11 19.72 128.36 17.54Q127.63 15.36 126.21 13.82Q125.68 13.24 125.06 12.77Q124.04 11.97 122.8 11.47Q120.8 10.65 118.31 10.65Q115.39 10.65 113.03 11.79Q112.62 11.98 112.24 12.21Q111.05 12.9 110.1 13.83Q108.91 14.98 108.07 16.51Q106.55 19.24 106.55 22.89Q106.55 26.63 108.11 29.37Q108.76 30.5 109.62 31.41Q110.86 32.72 112.54 33.59ZM112.31 20.77Q112.48 19.41 112.95 18.31Q113.54 16.96 114.55 16.1Q114.82 15.86 115.12 15.66Q115.16 15.64 115.19 15.62Q116.59 14.73 118.55 14.73Q120.37 14.73 121.59 15.52Q121.84 15.68 122.06 15.87Q122.95 16.61 123.46 17.8Q124.01 19.03 124.1 20.77L112.31 20.77ZM153.3 33.59Q155.99 35.08 159.64 35.08Q162.37 35.08 164.58 34.25Q166.29 33.6 167.63 32.49Q168.02 32.16 168.37 31.8Q168.62 31.55 168.84 31.29Q170.08 29.84 170.8 27.93Q171.64 25.67 171.64 22.83Q171.64 19.1 170.15 16.37Q169.35 14.88 168.19 13.76Q167.21 12.82 165.97 12.14Q163.29 10.65 159.64 10.65Q156.9 10.65 154.69 11.49Q153.11 12.08 151.86 13.08Q151.35 13.48 150.9 13.94Q150.65 14.2 150.41 14.47Q149.18 15.91 148.47 17.78Q147.64 20.01 147.64 22.83Q147.64 26.58 149.13 29.35Q149.97 30.9 151.19 32.05Q152.13 32.94 153.3 33.59ZM220.4 33.59Q223.28 35.08 227.27 35.08Q229.14 35.08 231.32 34.58Q233.51 34.07 235.19 33.02Q236.06 32.49 236.41 31.78Q236.74 31.11 236.69 30.48Q236.68 30.42 236.68 30.36Q236.61 29.88 236.38 29.51Q236.27 29.33 236.13 29.17Q236.04 29.08 235.93 29Q235.52 28.68 234.9 28.62Q234.13 28.55 233.13 29.13Q232.39 29.54 231.6 29.82Q230.91 30.07 230.17 30.22Q228.61 30.52 227.37 30.52Q224.04 30.52 222.21 28.87Q222.05 28.73 221.91 28.58Q220.45 27.03 220.15 24.23L234.66 24.23Q235.76 24.23 236.36 23.77Q236.58 23.61 236.72 23.4Q236.97 23.01 236.97 22.46Q236.97 19.72 236.22 17.54Q235.48 15.36 234.06 13.82Q233.53 13.24 232.92 12.77Q231.9 11.97 230.65 11.47Q228.66 10.65 226.16 10.65Q223.25 10.65 220.88 11.79Q220.48 11.98 220.09 12.21Q218.91 12.9 217.95 13.83Q216.76 14.98 215.92 16.51Q214.41 19.24 214.41 22.89Q214.41 26.63 215.97 29.37Q216.61 30.5 217.48 31.41Q218.71 32.72 220.4 33.59ZM220.16 20.77Q220.33 19.41 220.81 18.31Q221.4 16.96 222.4 16.1Q222.68 15.86 222.98 15.66Q223.01 15.64 223.05 15.62Q224.45 14.73 226.41 14.73Q228.23 14.73 229.45 15.52Q229.69 15.68 229.92 15.87Q230.81 16.61 231.32 17.8Q231.87 19.03 231.96 20.77L220.16 20.77ZM283.66 33.59Q286.54 35.08 290.53 35.08Q292.41 35.08 294.58 34.58Q296.78 34.07 298.45 33.02Q299.32 32.49 299.67 31.78Q300 31.11 299.95 30.48Q299.95 30.42 299.94 30.36Q299.88 29.88 299.65 29.51Q299.54 29.33 299.39 29.17Q299.3 29.08 299.2 29Q298.78 28.68 298.16 28.62Q297.4 28.55 296.39 29.13Q295.65 29.54 294.87 29.82Q294.17 30.07 293.44 30.22Q291.88 30.52 290.64 30.52Q287.3 30.52 285.47 28.87Q285.32 28.73 285.17 28.58Q283.71 27.03 283.41 24.23L297.92 24.23Q299.03 24.23 299.62 23.77Q299.84 23.61 299.98 23.4Q300.23 23.01 300.23 22.46Q300.23 19.72 299.48 17.54Q298.75 15.36 297.33 13.82Q296.79 13.24 296.18 12.77Q295.16 11.97 293.92 11.47Q291.92 10.65 289.43 10.65Q286.51 10.65 284.15 11.79Q283.74 11.98 283.36 12.21Q282.17 12.9 281.22 13.83Q280.03 14.98 279.19 16.51Q277.67 19.24 277.67 22.89Q277.67 26.63 279.23 29.37Q279.88 30.5 280.74 31.41Q281.98 32.72 283.66 33.59ZM283.43 20.77Q283.6 19.41 284.07 18.31Q284.66 16.96 285.67 16.1Q285.94 15.86 286.24 15.66Q286.28 15.64 286.31 15.62Q287.71 14.73 289.67 14.73Q291.49 14.73 292.71 15.52Q292.96 15.68 293.18 15.87Q294.07 16.61 294.58 17.8Q295.13 19.03 295.22 20.77L283.43 20.77ZM339 34.1Q340.99 35.08 343.53 35.08Q345.45 35.08 346.93 34.41Q347.98 33.93 348.78 33.19Q349.11 32.87 349.4 32.51Q349.54 32.34 349.67 32.16Q350.07 31.58 350.34 30.91L350.34 31.92Q350.34 33.41 351.08 34.2Q351.21 34.34 351.35 34.45Q352.06 34.99 353.17 34.99Q354.3 34.99 354.99 34.43Q355.12 34.33 355.24 34.2Q355.96 33.41 355.96 31.92L355.96 20.4Q355.96 17.03 354.85 14.9Q354.37 13.96 353.67 13.23Q352.77 12.3 351.51 11.7Q349.28 10.65 345.83 10.65Q344.15 10.65 342.11 11.03Q340.07 11.42 337.86 12.32Q337.08 12.62 336.69 13.18Q336.62 13.27 336.57 13.37Q336.25 13.94 336.19 14.54Q336.18 14.66 336.18 14.78Q336.18 15.15 336.28 15.49Q336.38 15.81 336.57 16.1Q336.75 16.38 337.01 16.58Q337.29 16.79 337.65 16.89Q338.34 17.08 339.25 16.65Q341.03 15.83 342.64 15.5Q344.25 15.16 345.64 15.16Q348.14 15.16 349.19 16.21Q350.25 17.27 350.25 19.67L350.25 20.68L348.57 20.68Q343.48 20.68 340.46 21.36Q337.44 22.03 336.09 23.54Q336 23.63 335.93 23.73Q334.74 25.21 334.74 27.64Q334.74 28.94 335.17 30.08Q335.43 30.79 335.87 31.44Q336.04 31.69 336.24 31.94Q337.31 33.26 339 34.1ZM350.25 24.14L350.25 25.19Q350.25 26.82 349.57 28.08Q349.55 28.13 349.52 28.18Q349.1 28.93 348.5 29.51Q348.08 29.91 347.57 30.22Q347.39 30.33 347.2 30.42Q346.12 30.96 344.77 30.96Q342.87 30.96 341.78 30.02Q341.74 29.98 341.7 29.95Q341.25 29.53 340.98 29.02Q340.6 28.29 340.6 27.36Q340.6 26.33 341.1 25.68Q341.2 25.54 341.34 25.41Q342.09 24.71 343.86 24.43Q345.64 24.14 348.62 24.14L350.25 24.14ZM306.07 34.38Q306.8 34.94 307.96 34.94Q309.21 34.94 309.95 34.32Q310.09 34.21 310.21 34.07Q310.22 34.06 310.23 34.04Q310.98 33.18 310.98 31.67L310.98 14.06Q310.98 12.49 310.2 11.65Q310.19 11.64 310.18 11.63Q310.05 11.49 309.89 11.37Q309.15 10.79 307.96 10.79Q306.76 10.79 306.02 11.37Q305.87 11.49 305.74 11.63Q304.98 12.48 304.98 14.06L304.98 31.67Q304.98 33.2 305.74 34.07L305.74 34.07Q305.89 34.24 306.07 34.38ZM162.21 29.96Q161.06 30.52 159.64 30.52Q158.07 30.52 156.86 29.86Q156 29.39 155.32 28.58Q153.69 26.63 153.69 22.83Q153.69 20.29 154.43 18.59Q155.14 16.99 156.36 16.15Q156.44 16.1 156.51 16.05Q156.7 15.93 156.9 15.83Q158.11 15.21 159.64 15.21Q161.25 15.21 162.48 15.89Q163.3 16.35 163.96 17.1Q165.6 19 165.6 22.83Q165.6 25.39 164.85 27.09Q164.18 28.63 163.01 29.49Q162.89 29.57 162.76 29.66Q162.49 29.83 162.21 29.96Z" fill="#363636" fill-opacity="1.000000" fill-rule="evenodd"/>
</svg>
